<?xml version="1.0" encoding="UTF-8"?>
<!DOCTYPE svg PUBLIC "-//W3C//DTD SVG 1.1//EN" "http://www.w3.org/Graphics/SVG/1.1/DTD/svg11.dtd">
<!-- Creator: CorelDRAW -->
<svg xmlns="http://www.w3.org/2000/svg" xml:space="preserve" width="10.1598mm" height="10.1598mm" version="1.1" style="shape-rendering:geometricPrecision; text-rendering:geometricPrecision; image-rendering:optimizeQuality; fill-rule:evenodd; clip-rule:evenodd"
viewBox="0 0 1015.98 1015.98"
 xmlns:xlink="http://www.w3.org/1999/xlink"
 xmlns:xodm="http://www.corel.com/coreldraw/odm/2003">
 <defs>
  <style type="text/css">
   <![CDATA[
    .fil0 {fill:#DC372C;fill-rule:nonzero}
   ]]>
  </style>
 </defs>
 <g id="Layer_x0020_1">
  <metadata id="CorelCorpID_0Corel-Layer"/>
  <path class="fil0" d="M380.37 459.67l52.95 0c99,-200.44 193.37,-558.99 481.52,-434.04 -28.48,75.46 -40.36,114.51 -40.36,195.65 -34.54,0 -41.97,-3.67 -73.85,-18.76 -169.94,-81.52 -249.22,154.23 -309.61,273.29 275.54,61.62 393.1,201.96 397.94,480.34l85.71 0 0 59.83 -387.49 0 0 -59.83 55.08 0c11.36,-215.78 -10.54,-397.56 -261.89,-446.38l0 446.38 88.33 0 0 59.83 -427.39 0 0 -59.83 118.24 0 0 -876.15 -118.24 0 0 -59.83 437.12 0 0 59.83 -98.06 0 0 379.67z"/>
 </g>
</svg>
