<svg 
 xmlns="http://www.w3.org/2000/svg"
 xmlns:xlink="http://www.w3.org/1999/xlink"
 width="666px" height="105px">
<path fill-rule="evenodd"  fill="rgb(255, 255, 255)"
 d="M665.295,30.410 C665.054,31.480 664.812,32.757 664.571,34.240 C664.087,37.898 663.846,42.246 663.846,47.283 C663.846,52.011 663.958,55.841 664.183,58.774 C664.407,61.707 664.691,64.511 665.037,67.184 C665.381,69.859 665.554,71.731 665.554,72.800 C665.554,74.042 665.261,74.870 664.674,75.284 C664.087,75.698 662.534,75.905 660.016,75.905 L655.047,75.905 C654.012,75.905 653.253,75.655 652.770,75.155 C652.286,74.655 651.942,73.680 651.735,72.231 C651.493,70.747 651.338,68.763 651.269,66.278 C651.200,63.760 651.131,58.981 651.062,51.942 L633.982,42.729 L633.982,49.302 C633.982,55.272 634.223,60.275 634.707,64.312 C635.189,68.349 635.431,71.178 635.431,72.800 C635.431,74.042 635.146,74.870 634.577,75.284 C634.008,75.698 632.429,75.905 629.841,75.905 L624.821,75.905 C623.923,75.905 623.233,75.595 622.751,74.974 C622.302,74.353 621.956,73.085 621.715,71.170 C621.474,69.254 621.318,66.520 621.250,62.966 C621.180,59.413 621.146,54.322 621.146,47.697 C621.146,40.969 621.250,36.121 621.457,33.153 C621.698,30.186 622.060,28.340 622.544,27.615 C622.991,26.857 623.751,26.477 624.821,26.477 C625.200,26.477 625.752,26.495 626.477,26.528 C627.202,26.563 627.719,26.580 628.030,26.580 C629.099,26.580 630.686,26.511 632.791,26.373 L633.982,26.373 C634.879,26.511 635.328,27.081 635.328,28.081 C635.328,30.221 635.180,31.619 634.888,32.274 C634.594,32.929 634.361,34.965 634.189,38.381 L651.010,47.697 L651.010,43.039 C651.010,38.036 651.166,34.362 651.476,32.015 C651.787,29.669 652.218,28.159 652.770,27.486 C653.322,26.813 654.081,26.477 655.047,26.477 C655.392,26.477 655.884,26.495 656.523,26.528 C657.161,26.563 657.721,26.580 658.205,26.580 C660.412,26.580 662.052,26.511 663.122,26.373 L664.260,26.373 C665.192,26.546 665.658,27.115 665.658,28.081 C665.658,28.530 665.536,29.306 665.295,30.410 ZM613.913,75.905 L603.108,75.905 C602.590,75.905 602.211,75.336 601.970,74.197 C601.797,73.094 601.332,71.247 600.574,68.659 C600.263,67.831 599.850,66.503 599.333,64.674 C598.954,63.191 598.489,61.603 597.937,59.912 C594.456,71.368 588.872,77.096 581.187,77.096 C578.429,77.096 576.197,76.345 574.491,74.844 C572.785,73.343 571.579,71.541 570.872,69.436 C570.165,67.331 569.813,65.278 569.813,63.276 C569.813,61.413 570.269,59.438 571.183,57.350 C572.096,55.263 573.284,53.176 574.750,51.088 C576.215,49.000 577.438,47.379 578.421,46.222 C579.403,45.067 580.962,43.298 583.100,40.917 C584.030,39.813 585.107,38.632 586.331,37.372 C587.554,36.112 588.373,35.207 588.787,34.654 C589.235,34.068 589.459,33.499 589.459,32.946 C589.459,32.084 589.200,30.894 588.683,29.375 C588.476,28.651 588.373,27.944 588.373,27.253 C588.373,26.805 589.097,26.580 590.544,26.580 L601.298,26.580 C602.021,26.580 602.453,26.805 602.591,27.253 C602.625,27.598 602.660,27.995 602.694,28.444 C602.728,28.892 602.789,29.410 602.875,29.996 C602.960,30.583 603.108,31.325 603.315,32.222 C603.589,33.153 603.865,34.103 604.141,35.068 C604.417,36.035 604.676,37.105 604.917,38.277 C605.124,38.933 605.399,39.985 605.745,41.435 C607.915,50.200 609.707,56.755 611.121,61.103 C612.569,65.485 613.758,68.763 614.688,70.937 C615.584,73.077 616.032,74.404 616.032,74.922 C616.032,75.578 615.326,75.905 613.913,75.905 ZM594.318,47.387 C593.629,45.179 593.181,43.626 592.974,42.729 C592.560,40.865 592.026,38.985 591.371,37.087 C587.270,41.538 584.470,45.438 582.971,48.784 C581.471,52.132 580.721,54.702 580.721,56.496 C580.721,58.291 581.255,59.947 582.324,61.465 C583.358,62.949 584.926,63.691 587.029,63.691 C588.890,63.691 590.510,63.225 591.889,62.293 C593.267,61.362 594.301,60.215 594.991,58.851 C595.679,57.489 596.025,56.238 596.025,55.099 C596.025,53.891 595.455,51.320 594.318,47.387 ZM562.059,39.908 C561.231,41.582 560.385,43.782 559.523,46.507 L553.985,45.575 C554.917,43.161 555.383,41.142 555.383,39.520 C555.383,35.552 554.123,32.990 551.604,31.834 C549.085,30.678 546.170,30.100 542.857,30.100 L540.942,30.100 C540.942,31.894 540.924,33.792 540.891,35.793 C540.891,37.795 540.891,39.209 540.891,40.037 C540.752,43.177 540.683,45.593 540.683,47.283 C540.683,50.838 540.752,55.668 540.891,61.776 C541.028,67.918 541.183,71.748 541.356,73.266 C541.356,74.370 541.132,75.155 540.683,75.621 C540.235,76.087 539.061,76.319 537.164,76.319 L530.901,76.319 C529.831,76.319 529.098,76.035 528.702,75.465 C528.304,74.896 528.055,73.887 527.951,72.438 C527.848,70.955 527.796,68.211 527.796,64.208 C527.796,62.932 527.813,61.707 527.848,60.533 C527.881,59.361 527.899,58.394 527.899,57.635 L527.899,53.080 C527.899,49.147 527.968,45.127 528.106,41.021 C528.106,40.710 528.158,39.554 528.262,37.553 C528.330,35.552 528.399,33.068 528.469,30.100 L526.554,30.100 C518.203,30.100 514.028,33.240 514.028,39.520 C514.028,40.521 514.494,42.539 515.426,45.575 L509.888,46.507 C508.438,42.056 506.385,37.863 503.728,33.930 C502.555,32.101 501.969,30.514 501.969,29.168 C501.969,28.133 502.279,27.236 502.900,26.477 C503.521,25.718 504.228,25.338 505.022,25.338 C505.609,25.338 507.662,25.580 511.182,26.063 C514.080,26.408 518.635,26.580 524.846,26.580 L544.565,26.580 C550.776,26.580 555.331,26.408 558.229,26.063 C561.714,25.580 563.767,25.338 564.389,25.338 C565.182,25.338 565.890,25.718 566.511,26.477 C567.132,27.236 567.442,28.133 567.442,29.168 C567.442,30.549 566.838,32.136 565.631,33.930 C564.078,36.242 562.888,38.235 562.059,39.908 ZM482.310,60.999 C484.739,63.691 487.263,65.554 489.881,66.589 C491.500,64.933 493.017,62.984 494.430,60.740 C494.532,60.533 494.713,60.223 494.971,59.809 C495.230,59.395 495.549,58.964 495.928,58.515 L499.391,61.258 C497.013,66.261 494.136,70.557 490.760,74.146 C487.383,77.734 484.627,79.528 482.491,79.528 C480.871,79.528 479.011,78.597 476.910,76.733 C474.843,74.905 472.826,72.463 470.863,69.410 C468.898,66.356 467.296,63.139 466.056,59.757 C464.815,56.376 464.196,53.236 464.196,50.337 C464.196,46.335 465.220,42.203 467.270,37.941 C469.321,33.680 471.732,30.109 474.506,27.227 C477.280,24.347 479.580,22.905 481.406,22.905 C481.992,22.905 483.231,23.260 485.127,23.966 C487.022,24.674 488.985,25.537 491.018,26.554 C493.052,27.573 494.800,28.642 496.265,29.763 C497.728,30.885 498.461,31.877 498.461,32.739 C498.461,33.430 497.461,34.810 495.463,36.880 C494.189,38.226 493.353,39.201 492.957,39.804 C492.561,40.408 492.164,41.047 491.768,41.719 C491.372,42.392 491.053,42.729 490.812,42.729 C490.468,42.729 489.727,41.952 488.590,40.399 C487.211,38.536 485.609,36.915 483.783,35.534 C481.957,34.155 479.407,33.119 476.134,32.429 C474.893,34.913 474.274,37.985 474.274,41.642 C474.274,44.886 475.006,48.250 476.470,51.734 C477.934,55.220 479.881,58.308 482.310,60.999 ZM415.409,55.668 C420.550,58.843 423.121,63.225 423.121,68.815 C423.121,70.920 422.715,72.489 421.905,73.524 C421.093,74.560 420.041,75.216 418.747,75.491 C417.453,75.768 415.736,75.905 413.597,75.905 L381.145,75.905 C380.248,75.905 379.558,75.664 379.075,75.181 C378.591,74.698 378.238,73.594 378.014,71.868 C377.789,70.143 377.678,67.590 377.678,64.208 C377.678,61.552 377.711,59.361 377.781,57.635 C377.988,48.560 378.160,42.349 378.299,39.002 C378.402,35.656 378.591,33.033 378.868,31.135 C379.144,29.238 379.515,28.003 379.981,27.434 C380.447,26.865 381.197,26.580 382.232,26.580 L407.645,26.580 C411.268,26.580 413.856,26.942 415.409,27.667 C416.962,28.392 417.738,30.048 417.738,32.636 C417.738,36.570 416.082,39.675 412.769,41.952 C409.457,44.230 404.781,46.283 398.743,48.112 L398.743,48.732 C404.712,50.182 410.267,52.494 415.409,55.668 ZM402.314,39.675 C403.349,37.846 403.867,36.104 403.867,34.447 C403.867,32.791 403.298,31.652 402.159,31.031 C401.020,30.410 399.329,30.100 397.087,30.100 C396.086,30.100 394.240,30.169 391.549,30.307 C391.065,35.207 390.824,40.469 390.824,46.093 C393.515,46.093 395.845,45.472 397.811,44.230 C399.812,43.022 401.313,41.504 402.314,39.675 ZM390.824,50.234 C390.824,50.268 390.789,51.424 390.720,53.701 C390.651,55.979 390.617,57.756 390.617,59.032 C390.617,61.586 390.720,65.934 390.927,72.075 C390.961,72.075 391.841,72.110 393.567,72.179 C395.257,72.248 396.603,72.282 397.604,72.282 C400.192,72.282 402.159,72.179 403.505,71.972 C404.850,71.731 405.877,71.170 406.584,70.290 C407.291,69.410 407.645,67.986 407.645,66.020 C407.645,63.984 406.989,61.724 405.678,59.239 C404.367,56.755 402.435,54.633 399.882,52.873 C397.328,51.113 394.309,50.234 390.824,50.234 ZM363.610,68.737 C361.573,71.964 359.434,74.577 357.192,76.578 C354.949,78.545 352.965,79.528 351.240,79.528 C348.928,79.528 346.201,78.200 343.062,75.543 C339.957,72.921 337.291,69.652 335.065,65.735 C332.840,61.819 331.727,58.032 331.727,54.374 C331.727,48.888 332.883,43.721 335.195,38.873 C337.506,34.025 340.215,30.151 343.321,27.253 C346.426,24.355 348.893,22.905 350.722,22.905 C352.033,22.905 353.793,23.432 356.001,24.484 C358.209,25.537 360.418,27.098 362.626,29.168 C364.834,31.238 366.697,33.896 368.216,37.139 C369.699,40.348 370.442,44.040 370.442,48.215 C370.442,51.390 369.812,54.797 368.553,58.437 C367.293,62.078 365.645,65.511 363.610,68.737 ZM359.417,47.646 C357.795,44.126 355.536,41.202 352.637,38.873 C349.739,36.544 346.374,35.172 342.544,34.758 C340.371,37.519 339.284,40.348 339.284,43.246 C339.284,46.111 340.016,49.354 341.483,52.977 C342.950,56.600 345.253,59.740 348.393,62.397 C351.498,65.019 355.346,66.330 359.935,66.330 C361.142,64.053 361.747,61.483 361.747,58.618 C361.747,54.788 360.970,51.131 359.417,47.646 ZM317.452,74.715 C315.209,76.578 312.691,77.510 309.896,77.510 C307.273,77.510 304.633,76.595 301.977,74.767 C299.319,72.938 297.301,70.764 295.921,68.245 C295.955,68.591 296.093,69.798 296.335,71.868 C296.956,76.733 297.267,82.392 297.267,88.845 C297.267,94.193 296.680,97.902 295.507,99.973 C294.333,102.043 292.694,103.078 290.590,103.078 C289.175,103.078 288.364,102.716 288.157,101.991 L288.157,101.370 C288.226,100.025 288.261,97.126 288.261,92.675 C288.261,87.878 288.088,83.169 287.743,78.545 C287.501,75.681 287.191,72.334 286.812,68.504 C286.431,64.674 286.173,61.810 286.035,59.912 C285.897,57.980 285.828,55.858 285.828,53.546 C285.828,47.715 287.045,42.479 289.477,37.838 C291.910,33.197 294.748,29.565 297.991,26.942 C301.234,24.321 303.822,23.009 305.755,23.009 C307.411,23.009 309.326,23.898 311.500,25.674 C313.674,27.452 315.770,29.885 317.789,32.972 C319.807,36.061 321.463,39.606 322.757,43.609 C324.051,47.612 324.698,51.769 324.698,56.082 C324.698,60.189 324.059,63.872 322.783,67.132 C321.506,70.393 319.730,72.921 317.452,74.715 ZM313.363,58.929 C313.190,56.272 312.449,53.132 311.138,49.509 C309.792,45.852 308.058,42.496 305.936,39.442 C303.814,36.388 301.459,34.223 298.871,32.946 C297.215,35.431 296.058,37.907 295.403,40.374 C294.748,42.841 294.420,45.852 294.420,49.405 C294.420,53.546 295.145,57.273 296.594,60.585 C298.077,63.932 299.863,66.511 301.951,68.323 C304.038,70.134 305.944,71.040 307.670,71.040 C308.946,71.040 310.154,70.437 311.293,69.229 C312.466,68.056 313.156,65.934 313.363,62.862 L313.363,58.929 ZM272.537,75.905 L266.999,75.905 C265.722,75.905 264.859,75.569 264.411,74.896 C263.962,74.223 263.686,73.180 263.583,71.765 C263.513,70.385 263.393,66.641 263.220,60.533 C263.186,59.568 263.169,58.722 263.169,57.997 C263.134,57.273 263.099,56.592 263.065,55.953 C263.030,55.315 262.996,54.728 262.962,54.193 C262.927,53.658 262.910,53.115 262.910,52.563 C253.213,54.702 248.366,60.810 248.366,70.885 C248.366,72.887 248.063,74.223 247.460,74.896 C246.856,75.569 245.139,75.905 242.310,75.905 L238.066,75.905 C235.443,75.905 233.787,75.707 233.097,75.310 C232.407,74.914 232.062,74.197 232.062,73.162 C232.062,71.472 232.562,69.444 233.563,67.081 C234.564,64.718 236.065,62.380 238.066,60.067 C240.033,57.721 242.457,55.712 245.338,54.038 C248.219,52.365 251.454,51.304 255.043,50.855 L255.043,50.337 C248.969,49.130 244.104,47.318 240.447,44.903 C236.824,42.522 235.012,39.002 235.012,34.344 C235.012,31.031 235.858,28.909 237.549,27.978 C239.239,27.046 242.034,26.580 245.933,26.580 L272.537,26.580 C273.365,26.580 274.090,26.563 274.711,26.528 C275.332,26.495 275.694,26.477 275.798,26.477 C276.660,26.477 277.091,27.046 277.091,28.185 C277.091,29.358 276.953,31.515 276.677,34.654 C276.194,42.556 275.953,49.837 275.953,56.496 C275.953,58.084 276.073,60.672 276.315,64.260 C276.556,67.849 276.815,70.696 277.091,72.800 L277.091,73.887 C277.091,74.543 276.798,75.043 276.212,75.388 C275.624,75.733 274.400,75.905 272.537,75.905 ZM257.786,30.203 C255.335,30.203 253.542,30.393 252.403,30.773 C251.264,31.118 250.557,31.652 250.281,32.377 C250.004,33.068 249.867,34.188 249.867,35.741 C249.867,39.330 251.143,42.323 253.697,44.721 C256.250,47.120 259.390,48.318 263.117,48.318 C263.117,41.728 263.393,35.690 263.945,30.203 L257.786,30.203 ZM218.460,38.433 C215.527,38.433 212.456,36.587 209.247,32.895 C208.039,31.515 207.082,30.514 206.375,29.893 C205.667,29.272 204.796,28.961 203.761,28.961 C200.483,28.961 198.335,31.030 197.317,35.166 C196.299,39.301 195.721,44.471 195.583,50.675 C197.274,49.366 199.586,48.039 202.519,46.694 C205.486,45.350 207.867,44.678 209.662,44.678 C211.041,44.678 212.318,44.885 213.492,45.298 C214.837,45.781 216.235,46.470 217.684,47.366 C219.098,48.228 220.134,48.658 220.789,48.658 C222.239,48.658 223.584,48.107 224.827,47.004 L227.000,49.848 C225.241,51.847 223.274,53.639 221.100,55.224 C219.961,56.086 219.056,56.689 218.383,57.034 C217.710,57.378 216.786,57.551 215.614,57.551 C214.061,57.551 212.405,56.965 210.645,55.793 C208.850,54.552 207.418,53.691 206.349,53.208 C205.279,52.726 204.089,52.484 202.778,52.484 C200.362,52.484 197.998,53.518 195.687,55.586 C195.687,61.066 197.007,65.607 199.646,69.209 C202.286,72.811 205.883,74.611 210.438,74.611 C214.440,74.611 218.995,72.783 224.102,69.125 L226.121,71.355 C221.082,76.769 214.716,79.477 207.022,79.477 C203.364,79.477 199.586,78.769 195.687,77.355 C191.822,75.974 188.441,73.404 185.542,69.643 C182.644,65.882 181.040,60.792 180.729,54.374 L180.729,50.751 C180.936,47.163 181.868,43.401 183.524,39.468 C185.145,35.500 187.639,32.118 191.003,29.323 C194.367,26.528 198.499,25.131 203.399,25.131 C208.368,25.131 213.681,26.904 219.340,30.449 C220.996,31.665 222.290,32.274 223.222,32.274 C224.154,32.274 224.930,31.998 225.551,31.446 L228.346,34.700 C224.516,37.189 221.221,38.433 218.460,38.433 ZM168.007,95.832 L162.624,95.107 C164.521,90.380 165.471,86.740 165.471,84.187 C165.471,80.839 164.125,78.640 161.434,77.587 C158.742,76.534 155.981,76.009 153.152,76.009 L145.078,76.009 C141.834,76.009 139.221,76.699 137.237,78.079 C135.252,79.459 134.261,81.495 134.261,84.187 C134.261,85.325 134.554,86.981 135.141,89.155 C135.727,91.329 136.400,93.313 137.159,95.107 L131.725,95.832 C129.206,89.793 126.497,84.825 123.599,80.926 C121.597,78.096 120.597,75.888 120.597,74.301 C120.597,73.853 120.838,73.369 121.321,72.852 C121.804,72.334 122.564,72.041 123.599,71.972 L125.617,71.972 C127.377,71.972 128.679,71.774 129.525,71.377 C130.370,70.980 131.069,70.367 131.621,69.539 C132.932,67.642 134.485,64.243 136.279,59.343 C138.073,54.444 139.635,49.483 140.964,44.462 C142.291,39.442 142.956,35.931 142.956,33.930 C142.956,32.136 142.646,30.687 142.025,29.582 C141.541,28.685 141.300,27.909 141.300,27.253 C141.300,26.667 142.110,26.373 143.733,26.373 C144.077,26.373 145.112,26.408 146.838,26.477 C148.563,26.546 149.650,26.580 150.099,26.580 C151.410,26.580 152.824,26.528 154.343,26.425 C155.861,26.321 157.017,26.270 157.811,26.270 C158.535,26.270 159.061,26.399 159.389,26.658 C159.717,26.917 159.898,27.597 159.933,28.700 C160.105,33.973 161.658,41.315 164.591,50.724 C166.212,55.859 167.584,59.909 168.706,62.873 C169.827,65.838 170.750,67.957 171.475,69.232 C172.199,70.507 172.820,71.300 173.338,71.610 C173.821,71.886 174.442,72.024 175.201,72.024 C175.408,71.955 175.719,71.920 176.133,71.920 C177.030,71.920 177.771,72.163 178.359,72.646 C178.945,73.131 179.238,73.667 179.238,74.254 C179.238,75.741 178.324,77.799 176.495,80.427 C173.320,84.611 170.491,89.746 168.007,95.832 ZM155.637,64.323 C152.117,54.986 149.944,47.113 149.115,40.704 C149.081,40.394 148.986,39.740 148.831,38.740 C148.675,37.740 148.528,36.844 148.391,36.052 L146.786,36.052 C145.889,41.359 143.991,48.474 141.093,57.397 C138.608,64.702 136.624,69.699 135.141,72.386 L159.208,72.386 C157.1000,70.285 156.810,67.597 155.637,64.323 ZM122.056,30.824 C121.642,31.619 121.384,32.118 121.280,32.325 C120.866,33.464 120.641,35.051 120.607,37.087 C120.607,38.916 120.538,40.331 120.400,41.331 L117.967,41.435 C117.415,39.606 116.069,38.692 113.930,38.692 C112.171,38.692 110.445,39.641 108.755,41.538 C107.064,43.436 105.614,47.163 104.407,52.718 C103.233,58.274 102.647,66.071 102.647,76.112 C102.647,82.564 102.768,86.791 103.009,88.793 C103.216,90.760 103.561,92.812 104.045,94.952 C104.527,97.091 104.769,99.541 104.769,102.302 C104.769,103.923 101.715,104.734 95.608,104.734 C94.780,104.734 94.262,104.544 94.055,104.165 C93.814,103.751 93.693,103.130 93.693,102.302 C93.693,99.093 93.797,96.280 94.004,93.865 C94.211,91.450 94.469,89.215 94.780,87.163 C95.090,85.109 95.401,83.134 95.712,81.237 C96.126,78.682 96.367,76.906 96.436,75.905 L90.329,75.905 C87.706,75.905 85.601,75.957 84.014,76.061 C82.462,76.164 81.633,76.216 81.530,76.216 C81.046,76.216 80.745,76.069 80.624,75.776 C80.503,75.483 80.443,74.888 80.443,73.990 L80.443,71.661 C80.236,66.278 79.399,59.740 77.933,52.045 C76.466,44.351 74.732,37.778 72.731,32.325 C71.937,30.151 71.541,28.599 71.541,27.667 C71.541,27.150 71.799,26.822 72.317,26.684 C72.835,26.546 73.852,26.477 75.371,26.477 C76.371,26.546 77.924,26.580 80.029,26.580 L82.669,26.580 C84.152,26.580 85.109,26.822 85.541,27.305 C85.972,27.788 86.326,28.961 86.602,30.824 C86.636,31.066 86.878,32.274 87.327,34.447 C87.499,35.275 87.767,36.647 88.129,38.562 C88.491,40.477 88.828,42.281 89.138,43.971 C89.725,46.835 90.501,51.390 91.468,57.635 C92.433,63.881 92.968,68.160 93.072,70.471 C93.072,70.920 93.141,71.524 93.279,72.282 L97.523,72.282 C98.420,62.104 99.801,53.305 101.664,45.886 C102.457,42.573 103.372,39.520 104.407,36.725 C105.476,33.930 107.150,31.351 109.427,28.987 C111.705,26.624 114.620,25.442 118.174,25.442 C121.521,25.442 123.195,26.149 123.195,27.564 C123.195,28.012 123.108,28.469 122.936,28.935 C122.763,29.401 122.470,30.031 122.056,30.824 ZM40.755,71.454 L44.844,71.454 C44.982,68.763 45.051,66.848 45.051,65.709 C45.051,61.776 44.741,58.317 44.120,55.332 C43.498,52.348 42.437,49.699 40.936,47.387 C39.435,45.076 37.399,43.143 34.829,41.590 C32.258,40.037 29.110,38.899 25.383,38.174 L25.383,71.454 L31.956,71.454 L31.956,75.905 L0.125,75.905 L0.125,71.454 L8.924,71.454 L8.924,6.136 L0.125,6.136 L0.125,1.685 L32.681,1.685 L32.681,6.136 L25.383,6.136 L25.383,34.447 L29.317,34.447 L30.766,31.497 C31.491,30.117 32.060,28.841 32.474,27.667 C33.026,26.528 33.440,25.692 33.716,25.157 C33.992,24.622 34.320,23.941 34.700,23.113 C35.942,20.628 37.288,17.937 38.737,15.038 C40.186,12.140 41.704,9.596 43.291,7.404 C44.878,5.213 46.699,3.462 48.752,2.150 C50.804,0.840 53.142,0.184 55.765,0.184 C59.078,0.184 62.200,0.823 65.133,2.099 C63.821,5.550 63.080,7.533 62.908,8.051 C62.769,8.603 62.614,9.777 62.442,11.570 C62.235,13.330 62.131,15.021 62.131,16.643 L60.009,16.643 C58.767,16.195 57.645,15.729 56.645,15.245 C54.919,14.417 53.004,14.003 50.900,14.003 C48.829,14.003 47.000,14.711 45.414,16.125 C43.826,17.540 42.230,19.628 40.626,22.388 C39.021,25.149 36.683,29.565 33.613,35.638 C39.306,36.915 44.257,38.726 48.467,41.072 C52.642,43.384 56.110,46.991 58.871,51.890 C61.631,56.790 63.080,63.311 63.218,71.454 L69.584,71.454 L69.584,75.905 L40.755,75.905 L40.755,71.454 Z"/>
</svg>