<svg
 xmlns="http://www.w3.org/2000/svg"
 xmlns:xlink="http://www.w3.org/1999/xlink"
 width="141px" height="58px">
<path fill-rule="evenodd"  fill="rgb(255, 52, 39)"
 d="M132.006,16.589 L132.006,16.800 C134.033,17.292 135.920,18.077 137.666,19.155 C139.412,20.234 140.285,21.722 140.285,23.620 C140.285,24.335 140.147,24.868 139.872,25.220 C139.596,25.571 139.239,25.794 138.800,25.888 C138.360,25.982 137.777,26.028 137.051,26.028 L126.029,26.028 C125.724,26.028 125.490,25.946 125.326,25.782 C125.162,25.618 125.042,25.243 124.966,24.657 C124.889,24.071 124.851,23.204 124.851,22.056 C124.851,21.154 124.863,20.409 124.887,19.823 C124.957,16.741 125.015,14.632 125.062,13.495 C125.098,12.359 125.162,11.468 125.256,10.823 C125.349,10.179 125.475,9.760 125.634,9.566 C125.792,9.373 126.047,9.276 126.398,9.276 L135.029,9.276 C136.260,9.276 137.139,9.399 137.666,9.645 C138.193,9.892 138.457,10.454 138.457,11.333 C138.457,12.669 137.895,13.724 136.769,14.497 C135.644,15.271 134.056,15.968 132.006,16.589 ZM129.246,20.298 C129.246,21.165 129.281,22.642 129.351,24.728 C129.363,24.728 129.662,24.739 130.248,24.763 C130.822,24.786 131.279,24.798 131.619,24.798 C132.498,24.798 133.166,24.763 133.623,24.692 C134.080,24.611 134.429,24.420 134.669,24.121 C134.909,23.822 135.029,23.339 135.029,22.671 C135.029,21.980 134.806,21.212 134.361,20.368 C133.916,19.524 133.260,18.804 132.393,18.206 C131.525,17.609 130.500,17.310 129.316,17.310 C129.316,17.321 129.305,17.714 129.281,18.487 C129.258,19.261 129.246,19.865 129.246,20.298 ZM133.166,10.788 C132.779,10.577 132.205,10.472 131.443,10.472 C131.103,10.472 130.476,10.495 129.562,10.542 C129.398,12.206 129.316,13.993 129.316,15.903 C130.230,15.903 131.021,15.692 131.689,15.271 C132.369,14.860 132.879,14.345 133.219,13.724 C133.570,13.103 133.746,12.511 133.746,11.948 C133.746,11.386 133.553,10.999 133.166,10.788 ZM120.614,23.594 C119.922,24.690 119.196,25.577 118.434,26.257 C117.672,26.925 116.998,27.259 116.413,27.259 C115.627,27.259 114.701,26.808 113.635,25.905 C112.581,25.015 111.675,23.904 110.919,22.574 C110.164,21.244 109.786,19.958 109.786,18.716 C109.786,16.852 110.178,15.098 110.963,13.451 C111.748,11.805 112.668,10.489 113.723,9.505 C114.778,8.521 115.615,8.028 116.237,8.028 C116.682,8.028 117.280,8.207 118.030,8.564 C118.780,8.922 119.530,9.452 120.280,10.155 C121.030,10.858 121.662,11.761 122.178,12.862 C122.682,13.952 122.934,15.206 122.934,16.624 C122.934,17.702 122.720,18.860 122.292,20.096 C121.865,21.332 121.305,22.498 120.614,23.594 ZM119.190,16.431 C118.639,15.235 117.872,14.242 116.887,13.451 C115.903,12.660 114.760,12.194 113.459,12.054 C112.721,12.991 112.352,13.952 112.352,14.937 C112.352,15.909 112.601,17.011 113.099,18.241 C113.597,19.472 114.379,20.538 115.446,21.440 C116.500,22.331 117.807,22.776 119.366,22.776 C119.776,22.003 119.981,21.130 119.981,20.157 C119.981,18.856 119.717,17.615 119.190,16.431 ZM105.478,25.624 C104.716,26.257 103.860,26.573 102.911,26.573 C102.020,26.573 101.124,26.263 100.222,25.642 C99.319,25.021 98.634,24.282 98.165,23.427 C98.177,23.544 98.224,23.954 98.306,24.657 C98.517,26.309 98.622,28.231 98.622,30.423 C98.622,32.239 98.423,33.499 98.025,34.202 C97.626,34.905 97.069,35.257 96.355,35.257 C95.874,35.257 95.599,35.134 95.528,34.888 L95.528,34.677 C95.552,34.220 95.564,33.235 95.564,31.724 C95.564,30.095 95.505,28.495 95.388,26.925 C95.306,25.952 95.200,24.816 95.071,23.515 C94.942,22.214 94.854,21.241 94.808,20.597 C94.761,19.940 94.737,19.220 94.737,18.435 C94.737,16.454 95.150,14.676 95.977,13.100 C96.803,11.524 97.767,10.290 98.868,9.399 C99.970,8.509 100.848,8.064 101.505,8.064 C102.068,8.064 102.718,8.365 103.456,8.969 C104.194,9.572 104.906,10.399 105.592,11.447 C106.277,12.496 106.840,13.700 107.279,15.060 C107.719,16.419 107.939,17.831 107.939,19.296 C107.939,20.691 107.722,21.941 107.288,23.049 C106.854,24.156 106.251,25.015 105.478,25.624 ZM104.089,20.263 C104.030,19.360 103.778,18.294 103.333,17.063 C102.876,15.821 102.287,14.682 101.566,13.645 C100.846,12.607 100.046,11.872 99.167,11.438 C98.605,12.282 98.212,13.123 97.989,13.961 C97.767,14.799 97.655,15.821 97.655,17.028 C97.655,18.435 97.901,19.700 98.394,20.825 C98.897,21.962 99.504,22.838 100.213,23.453 C100.922,24.068 101.569,24.376 102.155,24.376 C102.589,24.376 102.999,24.171 103.386,23.761 C103.784,23.362 104.019,22.642 104.089,21.599 L104.089,20.263 ZM90.763,26.028 L88.882,26.028 C88.449,26.028 88.156,25.914 88.004,25.686 C87.851,25.457 87.757,25.103 87.722,24.622 C87.699,24.153 87.658,22.882 87.599,20.808 C87.587,20.480 87.582,20.192 87.582,19.946 C87.570,19.700 87.558,19.469 87.547,19.252 C87.535,19.035 87.523,18.836 87.511,18.654 C87.500,18.473 87.494,18.288 87.494,18.101 C84.201,18.827 82.554,20.902 82.554,24.323 C82.554,25.003 82.452,25.457 82.247,25.686 C82.042,25.914 81.458,26.028 80.498,26.028 L79.056,26.028 C78.166,26.028 77.603,25.961 77.369,25.826 C77.134,25.692 77.017,25.448 77.017,25.097 C77.017,24.523 77.187,23.834 77.527,23.031 C77.867,22.229 78.377,21.435 79.056,20.649 C79.724,19.853 80.547,19.170 81.526,18.602 C82.504,18.033 83.603,17.673 84.822,17.521 L84.822,17.345 C82.759,16.935 81.107,16.320 79.865,15.499 C78.634,14.690 78.019,13.495 78.019,11.913 C78.019,10.788 78.306,10.067 78.881,9.751 C79.455,9.434 80.404,9.276 81.728,9.276 L90.763,9.276 C91.045,9.276 91.291,9.271 91.502,9.259 C91.713,9.247 91.836,9.241 91.871,9.241 C92.164,9.241 92.310,9.434 92.310,9.821 C92.310,10.220 92.263,10.952 92.170,12.018 C92.005,14.702 91.923,17.175 91.923,19.436 C91.923,19.976 91.964,20.855 92.046,22.073 C92.128,23.292 92.216,24.259 92.310,24.974 L92.310,25.343 C92.310,25.565 92.210,25.736 92.011,25.853 C91.812,25.970 91.396,26.028 90.763,26.028 ZM85.754,10.507 C84.921,10.507 84.312,10.571 83.925,10.700 C83.539,10.817 83.298,10.999 83.205,11.245 C83.111,11.480 83.064,11.860 83.064,12.388 C83.064,13.607 83.498,14.623 84.365,15.438 C85.232,16.252 86.298,16.659 87.564,16.659 C87.564,14.421 87.658,12.370 87.845,10.507 L85.754,10.507 ZM72.938,13.302 C71.942,13.302 70.899,12.675 69.809,11.421 C69.399,10.952 69.073,10.612 68.833,10.401 C68.593,10.191 68.297,10.085 67.945,10.085 C66.832,10.085 66.103,10.788 65.757,12.192 C65.411,13.597 65.215,15.353 65.168,17.460 C65.742,17.015 66.527,16.564 67.524,16.107 C68.531,15.651 69.340,15.423 69.949,15.423 C70.418,15.423 70.852,15.493 71.250,15.633 C71.707,15.797 72.182,16.031 72.674,16.336 C73.154,16.629 73.506,16.775 73.729,16.775 C74.221,16.775 74.678,16.587 75.100,16.213 L75.838,17.178 C75.240,17.857 74.573,18.466 73.834,19.004 C73.447,19.297 73.140,19.502 72.911,19.619 C72.683,19.736 72.369,19.795 71.971,19.795 C71.444,19.795 70.881,19.596 70.283,19.198 C69.674,18.776 69.187,18.484 68.824,18.320 C68.461,18.156 68.057,18.074 67.612,18.074 C66.791,18.074 65.988,18.425 65.203,19.127 C65.203,20.989 65.652,22.531 66.548,23.754 C67.445,24.977 68.666,25.589 70.213,25.589 C71.572,25.589 73.119,24.968 74.854,23.726 L75.539,24.483 C73.828,26.322 71.666,27.241 69.053,27.241 C67.811,27.241 66.527,27.001 65.203,26.520 C63.891,26.052 62.742,25.179 61.758,23.901 C60.774,22.624 60.229,20.896 60.123,18.716 L60.123,17.485 C60.194,16.267 60.510,14.989 61.072,13.653 C61.623,12.306 62.470,11.157 63.613,10.208 C64.755,9.259 66.158,8.784 67.822,8.784 C69.510,8.784 71.314,9.386 73.237,10.590 C73.799,11.003 74.238,11.210 74.555,11.210 C74.871,11.210 75.135,11.116 75.346,10.929 L76.295,12.034 C74.994,12.879 73.875,13.302 72.938,13.302 ZM59.225,27.564 C58.147,28.985 57.186,30.729 56.343,32.796 L54.514,32.550 C55.159,30.944 55.481,29.708 55.481,28.841 C55.481,27.704 55.024,26.957 54.110,26.599 C53.196,26.242 52.258,26.063 51.298,26.063 L48.556,26.063 C47.454,26.063 46.566,26.298 45.892,26.767 C45.218,27.235 44.882,27.927 44.882,28.841 C44.882,29.227 44.981,29.790 45.180,30.528 C45.380,31.267 45.608,31.940 45.866,32.550 L44.020,32.796 C43.165,30.745 42.245,29.058 41.261,27.733 C40.581,26.772 40.241,26.023 40.241,25.483 C40.241,25.331 40.323,25.167 40.487,24.991 C40.651,24.816 40.909,24.716 41.261,24.692 L41.946,24.692 C42.544,24.692 42.986,24.625 43.273,24.490 C43.560,24.356 43.798,24.147 43.985,23.866 C44.430,23.222 44.958,22.067 45.567,20.403 C46.176,18.739 46.707,17.055 47.158,15.350 C47.609,13.645 47.835,12.452 47.835,11.772 C47.835,11.163 47.729,10.671 47.518,10.296 C47.354,9.991 47.272,9.728 47.272,9.505 C47.272,9.306 47.548,9.206 48.098,9.206 C48.215,9.206 48.567,9.218 49.153,9.241 C49.739,9.265 50.108,9.276 50.261,9.276 C50.706,9.276 51.186,9.259 51.702,9.224 C52.218,9.188 52.610,9.171 52.880,9.171 C53.126,9.171 53.304,9.215 53.416,9.303 C53.527,9.391 53.589,9.622 53.600,9.996 C53.659,11.787 54.186,14.281 55.182,17.476 C55.733,19.220 56.199,20.596 56.580,21.602 C56.961,22.609 57.274,23.329 57.520,23.762 C57.766,24.195 57.977,24.464 58.153,24.570 C58.317,24.663 58.528,24.710 58.786,24.710 C58.856,24.687 58.962,24.675 59.102,24.675 C59.407,24.675 59.659,24.757 59.858,24.922 C60.057,25.086 60.157,25.268 60.157,25.467 C60.157,25.973 59.846,26.671 59.225,27.564 ZM52.141,22.095 C50.946,18.923 50.208,16.250 49.927,14.073 C49.915,13.968 49.883,13.746 49.830,13.406 C49.777,13.067 49.727,12.762 49.680,12.493 L49.135,12.493 C48.831,14.295 48.186,16.712 47.202,19.743 C46.358,22.223 45.684,23.920 45.180,24.833 L53.354,24.833 C52.944,24.120 52.540,23.207 52.141,22.095 ZM41.277,10.718 C41.136,10.987 41.048,11.157 41.013,11.228 C40.872,11.614 40.796,12.153 40.785,12.845 C40.785,13.466 40.761,13.946 40.714,14.286 L39.888,14.321 C39.700,13.700 39.243,13.390 38.517,13.390 C37.919,13.390 37.333,13.712 36.759,14.356 C36.185,15.001 35.693,16.267 35.283,18.153 C34.884,20.040 34.685,22.689 34.685,26.099 C34.685,28.290 34.726,29.725 34.808,30.405 C34.878,31.073 34.995,31.770 35.160,32.497 C35.324,33.224 35.406,34.055 35.406,34.993 C35.406,35.544 34.368,35.819 32.294,35.819 C32.013,35.819 31.837,35.755 31.767,35.626 C31.685,35.485 31.644,35.274 31.644,34.993 C31.644,33.903 31.679,32.948 31.749,32.128 C31.820,31.308 31.908,30.549 32.013,29.852 C32.118,29.154 32.224,28.483 32.330,27.839 C32.470,26.971 32.552,26.368 32.576,26.028 L30.501,26.028 C29.611,26.028 28.896,26.046 28.357,26.081 C27.829,26.116 27.548,26.134 27.513,26.134 C27.349,26.134 27.246,26.084 27.205,25.984 C27.164,25.885 27.144,25.683 27.144,25.378 L27.144,24.587 C27.074,22.759 26.789,20.538 26.291,17.925 C25.793,15.312 25.204,13.079 24.525,11.228 C24.255,10.489 24.120,9.962 24.120,9.645 C24.120,9.470 24.208,9.359 24.384,9.311 C24.560,9.265 24.905,9.241 25.421,9.241 C25.761,9.265 26.288,9.276 27.003,9.276 L27.900,9.276 C28.403,9.276 28.729,9.359 28.875,9.522 C29.022,9.687 29.142,10.085 29.236,10.718 C29.247,10.800 29.329,11.210 29.482,11.948 C29.540,12.229 29.631,12.695 29.754,13.346 C29.877,13.996 29.992,14.609 30.097,15.183 C30.296,16.155 30.560,17.702 30.888,19.823 C31.216,21.944 31.398,23.398 31.433,24.183 C31.433,24.335 31.456,24.540 31.503,24.798 L32.945,24.798 C33.249,21.341 33.718,18.353 34.351,15.833 C34.620,14.708 34.931,13.671 35.283,12.722 C35.646,11.772 36.214,10.897 36.988,10.094 C37.761,9.291 38.751,8.890 39.958,8.890 C41.095,8.890 41.663,9.130 41.663,9.610 C41.663,9.763 41.634,9.918 41.576,10.076 C41.517,10.234 41.417,10.448 41.277,10.718 ZM14.205,24.517 L15.594,24.517 C15.640,23.603 15.664,22.952 15.664,22.566 C15.664,21.229 15.559,20.055 15.348,19.041 C15.137,18.028 14.776,17.128 14.266,16.343 C13.757,15.558 13.065,14.901 12.192,14.374 C11.319,13.847 10.250,13.460 8.984,13.214 L8.984,24.517 L11.217,24.517 L11.217,26.028 L0.406,26.028 L0.406,24.517 L3.394,24.517 L3.394,2.333 L0.406,2.333 L0.406,0.821 L11.463,0.821 L11.463,2.333 L8.984,2.333 L8.984,11.948 L10.320,11.948 L10.812,10.946 C11.058,10.478 11.252,10.044 11.393,9.645 C11.580,9.259 11.720,8.975 11.814,8.793 C11.908,8.611 12.019,8.380 12.148,8.099 C12.570,7.255 13.027,6.341 13.519,5.357 C14.012,4.372 14.527,3.508 15.066,2.764 C15.605,2.020 16.223,1.425 16.921,0.980 C17.618,0.534 18.412,0.312 19.303,0.312 C20.428,0.312 21.488,0.529 22.484,0.962 C22.039,2.134 21.787,2.808 21.729,2.984 C21.681,3.171 21.629,3.570 21.570,4.179 C21.500,4.776 21.465,5.351 21.465,5.901 L20.744,5.901 C20.322,5.749 19.941,5.591 19.602,5.427 C19.015,5.146 18.365,5.005 17.650,5.005 C16.947,5.005 16.326,5.245 15.787,5.726 C15.248,6.206 14.706,6.915 14.161,7.853 C13.616,8.790 12.822,10.290 11.779,12.353 C13.713,12.786 15.394,13.401 16.824,14.198 C18.242,14.983 19.420,16.208 20.357,17.872 C21.295,19.536 21.787,21.751 21.834,24.517 L23.996,24.517 L23.996,26.028 L14.205,26.028 L14.205,24.517 ZM4.013,39.496 C4.955,38.518 5.737,38.028 6.357,38.028 C6.555,38.028 6.977,38.149 7.620,38.389 C8.264,38.629 8.931,38.922 9.621,39.267 C10.312,39.613 10.906,39.977 11.403,40.358 C11.900,40.738 12.149,41.075 12.149,41.368 C12.149,41.603 11.809,42.071 11.131,42.775 C10.698,43.231 10.414,43.563 10.280,43.768 C10.145,43.973 10.010,44.189 9.876,44.418 C9.741,44.646 9.633,44.761 9.551,44.761 C9.434,44.761 9.183,44.497 8.796,43.970 C8.328,43.337 7.784,42.786 7.164,42.317 C6.544,41.849 5.678,41.497 4.566,41.263 C4.145,42.106 3.934,43.150 3.934,44.391 C3.934,45.493 4.183,46.636 4.680,47.819 C5.178,49.003 5.839,50.052 6.664,50.966 C7.489,51.880 8.346,52.513 9.235,52.864 C9.785,52.302 10.300,51.640 10.780,50.878 C10.815,50.808 10.876,50.702 10.964,50.562 C11.052,50.421 11.160,50.274 11.289,50.122 L12.465,51.054 C11.657,52.753 10.680,54.212 9.533,55.431 C8.387,56.649 7.451,57.259 6.725,57.259 C6.175,57.259 5.543,56.942 4.830,56.309 C4.127,55.689 3.443,54.859 2.776,53.822 C2.109,52.785 1.565,51.692 1.143,50.544 C0.722,49.396 0.512,48.329 0.512,47.345 C0.512,45.985 0.860,44.582 1.556,43.135 C2.252,41.688 3.071,40.475 4.013,39.496 ZM13.837,38.854 C14.036,38.854 14.734,38.937 15.929,39.101 C16.914,39.218 18.460,39.276 20.570,39.276 L27.267,39.276 C29.376,39.276 30.923,39.218 31.908,39.101 C33.091,38.937 33.789,38.854 33.999,38.854 C34.269,38.854 34.509,38.984 34.720,39.241 C34.931,39.499 35.036,39.804 35.036,40.155 C35.036,40.624 34.831,41.163 34.421,41.772 C33.894,42.558 33.490,43.234 33.208,43.803 C32.927,44.371 32.640,45.118 32.347,46.044 L30.466,45.728 C30.783,44.907 30.941,44.222 30.941,43.671 C30.941,42.323 30.513,41.453 29.658,41.061 C28.802,40.668 27.812,40.472 26.687,40.472 L26.037,40.472 C26.037,41.081 26.030,41.726 26.019,42.405 C26.019,43.085 26.019,43.565 26.019,43.847 C25.972,44.913 25.949,45.734 25.949,46.308 C25.949,47.515 25.972,49.155 26.019,51.229 C26.066,53.316 26.118,54.616 26.177,55.132 C26.177,55.507 26.101,55.773 25.949,55.932 C25.796,56.090 25.398,56.169 24.753,56.169 L22.626,56.169 C22.263,56.169 22.014,56.072 21.879,55.879 C21.744,55.686 21.660,55.343 21.624,54.851 C21.589,54.347 21.572,53.415 21.572,52.056 C21.572,51.622 21.577,51.206 21.589,50.808 C21.601,50.409 21.607,50.081 21.607,49.823 L21.607,48.276 C21.607,46.940 21.630,45.575 21.677,44.181 C21.677,44.075 21.695,43.683 21.730,43.003 C21.753,42.323 21.777,41.480 21.800,40.472 L21.150,40.472 C18.314,40.472 16.896,41.538 16.896,43.671 C16.896,44.011 17.054,44.696 17.370,45.728 L15.490,46.044 C14.997,44.532 14.300,43.108 13.398,41.772 C12.999,41.151 12.800,40.612 12.800,40.155 C12.800,39.804 12.906,39.499 13.117,39.241 C13.328,38.984 13.568,38.854 13.837,38.854 ZM36.978,47.600 C37.476,46.891 37.891,46.340 38.225,45.947 C38.559,45.555 39.088,44.954 39.814,44.145 C40.130,43.771 40.496,43.369 40.912,42.941 C41.327,42.514 41.605,42.206 41.746,42.018 C41.898,41.819 41.974,41.626 41.974,41.438 C41.974,41.146 41.886,40.741 41.710,40.226 C41.640,39.979 41.605,39.739 41.605,39.505 C41.605,39.353 41.851,39.276 42.343,39.276 L45.995,39.276 C46.240,39.276 46.387,39.353 46.434,39.505 C46.445,39.622 46.457,39.757 46.469,39.909 C46.480,40.062 46.501,40.237 46.530,40.437 C46.559,40.636 46.609,40.888 46.680,41.192 C46.773,41.509 46.867,41.831 46.960,42.159 C47.054,42.487 47.142,42.851 47.224,43.249 C47.294,43.472 47.388,43.829 47.505,44.321 C48.242,47.298 48.851,49.524 49.331,51.001 C49.822,52.489 50.226,53.602 50.542,54.341 C50.847,55.068 50.999,55.519 50.999,55.694 C50.999,55.917 50.759,56.028 50.279,56.028 L46.609,56.028 C46.434,56.028 46.305,55.835 46.223,55.448 C46.164,55.073 46.006,54.446 45.749,53.567 C45.643,53.286 45.503,52.835 45.327,52.214 C45.199,51.710 45.041,51.171 44.853,50.597 C43.671,54.487 41.775,56.433 39.164,56.433 C38.228,56.433 37.470,56.178 36.891,55.668 C36.311,55.158 35.901,54.546 35.661,53.831 C35.421,53.116 35.302,52.419 35.302,51.739 C35.302,51.106 35.456,50.436 35.767,49.727 C36.077,49.018 36.481,48.309 36.978,47.600 ZM39.551,51.124 C39.902,51.628 40.434,51.880 41.149,51.880 C41.781,51.880 42.331,51.722 42.799,51.405 C43.267,51.089 43.619,50.699 43.853,50.236 C44.087,49.774 44.204,49.349 44.204,48.962 C44.204,48.552 44.010,47.679 43.624,46.343 C43.390,45.593 43.238,45.066 43.168,44.761 C43.027,44.128 42.846,43.489 42.623,42.845 C41.230,44.356 40.279,45.681 39.770,46.817 C39.261,47.954 39.006,48.827 39.006,49.436 C39.006,50.046 39.188,50.608 39.551,51.124 ZM52.670,39.628 C52.822,39.370 53.080,39.241 53.444,39.241 C53.572,39.241 53.760,39.247 54.006,39.259 C54.252,39.271 54.428,39.276 54.533,39.276 C54.897,39.276 55.436,39.253 56.151,39.206 L56.555,39.206 C56.860,39.253 57.012,39.446 57.012,39.786 C57.012,40.513 56.962,40.987 56.863,41.210 C56.763,41.433 56.684,42.124 56.625,43.284 L62.338,46.448 L62.338,44.866 C62.338,43.167 62.391,41.919 62.496,41.122 C62.602,40.325 62.748,39.812 62.936,39.584 C63.123,39.355 63.381,39.241 63.709,39.241 C63.826,39.241 63.993,39.247 64.210,39.259 C64.427,39.271 64.617,39.276 64.782,39.276 C65.531,39.276 66.088,39.253 66.451,39.206 L66.838,39.206 C67.155,39.265 67.313,39.458 67.313,39.786 C67.313,39.939 67.272,40.202 67.190,40.577 C67.108,40.940 67.025,41.374 66.944,41.878 C66.779,43.120 66.697,44.597 66.697,46.308 C66.697,47.913 66.735,49.214 66.812,50.210 C66.888,51.206 66.985,52.158 67.102,53.066 C67.219,53.975 67.278,54.611 67.278,54.974 C67.278,55.396 67.178,55.677 66.979,55.817 C66.779,55.958 66.252,56.028 65.397,56.028 L63.709,56.028 C63.358,56.028 63.100,55.943 62.936,55.773 C62.772,55.604 62.655,55.273 62.584,54.780 C62.502,54.276 62.449,53.602 62.426,52.759 C62.402,51.903 62.379,50.280 62.356,47.890 L56.555,44.761 L56.555,46.993 C56.555,49.021 56.637,50.720 56.801,52.091 C56.965,53.462 57.047,54.423 57.047,54.974 C57.047,55.396 56.950,55.677 56.757,55.817 C56.564,55.958 56.028,56.028 55.149,56.028 L53.444,56.028 C53.139,56.028 52.904,55.923 52.741,55.712 C52.588,55.501 52.471,55.070 52.389,54.420 C52.307,53.769 52.254,52.841 52.231,51.634 C52.207,50.427 52.196,48.698 52.196,46.448 C52.196,44.163 52.231,42.517 52.301,41.509 C52.383,40.501 52.506,39.874 52.670,39.628 Z"/>
</svg>
